<svg xmlns="http://www.w3.org/2000/svg" width="438" height="144" viewBox="0 0 438 144" version="1.1"><path d="" stroke="none" fill="#000000" fill-rule="evenodd"/><path d="M 271.023 24.090 C 268.810 26.889, 267.012 29.477, 267.027 29.840 C 267.041 30.203, 269.733 32.405, 273.007 34.734 L 278.961 38.967 282.981 33.526 C 285.191 30.534, 286.981 27.729, 286.957 27.293 C 286.934 26.857, 284.726 24.813, 282.050 22.750 C 279.374 20.688, 276.704 19, 276.116 19 C 275.528 19, 273.236 21.290, 271.023 24.090 M 329.999 33.250 L 329.999 44.500 321.749 44.564 C 315.314 44.614, 312.469 45.127, 308.810 46.896 C 306.231 48.143, 302.135 51.287, 299.707 53.882 C 296.969 56.809, 294.621 60.626, 293.522 63.934 C 292.257 67.741, 291.886 71.164, 292.224 75.892 C 292.485 79.535, 293.492 84.087, 294.461 86.008 C 295.431 87.929, 297.636 91.002, 299.362 92.838 C 301.088 94.673, 304.287 97.096, 306.471 98.220 C 308.654 99.345, 313.221 100.489, 316.619 100.762 C 320.849 101.101, 324.302 100.744, 327.575 99.629 C 331.906 98.153, 332.575 98.146, 334.723 99.554 C 336.990 101.039, 337.312 100.925, 342.047 96.961 C 344.771 94.680, 347 92.554, 347 92.236 C 347 91.918, 346.212 90.788, 345.250 89.725 C 343.671 87.982, 343.472 84.576, 343.211 54.896 L 342.922 22 336.461 22 L 330 22 329.999 33.250 M 139.707 30.547 C 136.926 31.440, 133.329 33.671, 131.138 35.862 C 128.777 38.223, 126.868 41.399, 126.047 44.334 C 125.263 47.133, 124.988 50.892, 125.365 53.644 C 125.713 56.183, 126.937 59.780, 128.086 61.639 C 129.234 63.497, 132.050 66.117, 134.344 67.461 C 136.754 68.874, 142.136 70.537, 147.099 71.402 C 151.821 72.226, 156.892 73.449, 158.367 74.121 C 159.841 74.793, 161.303 76.358, 161.614 77.599 C 161.926 78.840, 161.875 80.819, 161.501 81.997 C 161.127 83.174, 159.399 85.005, 157.661 86.065 C 155.324 87.490, 152.676 87.988, 147.500 87.974 C 142.803 87.962, 139.130 87.334, 136.335 86.065 C 134.045 85.025, 130.926 82.777, 129.405 81.070 C 127.379 78.796, 126.424 78.305, 125.835 79.233 C 125.393 79.930, 125.024 83.932, 125.015 88.127 L 125 95.754 129.777 97.809 C 132.405 98.939, 137.585 100.392, 141.289 101.037 C 146.105 101.875, 149.659 101.918, 153.762 101.188 C 156.918 100.625, 160.688 99.708, 162.139 99.150 C 163.590 98.591, 166.473 96.645, 168.546 94.826 C 170.618 93.006, 173.133 89.713, 174.135 87.509 C 175.137 85.304, 175.966 81.280, 175.978 78.566 C 175.991 75.560, 175.181 71.939, 173.904 69.302 C 172.491 66.382, 170.394 64.143, 167.466 62.427 C 165.070 61.023, 159.070 59.069, 154.080 58.068 C 149.106 57.070, 143.911 55.516, 142.534 54.614 C 141.158 53.713, 139.761 51.897, 139.431 50.580 C 139.100 49.264, 139.326 47.260, 139.932 46.127 C 140.544 44.984, 142.818 43.587, 145.044 42.988 C 147.873 42.226, 150.719 42.216, 154.710 42.954 C 157.822 43.529, 160.494 44, 160.649 44 C 160.804 44, 162.536 45.410, 164.499 47.133 C 166.461 48.856, 168.222 50.094, 168.412 49.883 C 168.602 49.672, 169.068 46.082, 169.449 41.904 L 170.142 34.307 164.886 32.046 C 161.477 30.580, 156.973 29.649, 152.065 29.397 C 147.026 29.139, 142.900 29.523, 139.707 30.547 M 192 37.500 L 192 45 188 45 L 184 45 184 51.500 L 184 58 187.933 58 L 191.865 58 192.183 74.430 C 192.468 89.179, 192.711 91.143, 194.562 93.619 C 195.696 95.135, 197.827 97.275, 199.298 98.373 C 201.041 99.674, 204.081 100.523, 208.021 100.808 C 212.213 101.111, 215.439 100.722, 218.534 99.540 L 223 97.835 223 91.417 C 223 87.888, 222.662 85.014, 222.250 85.032 C 221.838 85.049, 220.626 85.724, 219.559 86.532 C 218.491 87.339, 215.791 87.993, 213.559 87.985 C 211.326 87.976, 208.966 87.630, 208.313 87.214 C 207.659 86.799, 206.647 85.202, 206.063 83.665 C 205.478 82.127, 205 75.724, 205 69.435 L 205 58 212.548 58 L 220.095 58 219.798 51.750 L 219.500 45.500 212.250 45.206 L 205 44.912 205 37.456 L 205 30 198.500 30 L 192 30 192 37.500 M 249.250 45.989 C 246.598 47.606, 246 47.697, 246 46.485 C 246 45.313, 244.525 45, 239 45 L 232 45 232 72.500 L 232 100 239 100 L 246 100 246 80.573 L 246 61.145 248.635 59.073 C 250.084 57.933, 252.459 57, 253.912 57 C 255.366 57, 257.584 57.721, 258.842 58.602 C 260.100 59.483, 261.263 60.046, 261.426 59.852 C 261.589 59.658, 262.008 56.293, 262.357 52.374 L 262.991 45.248 259.870 44.624 C 258.154 44.281, 255.794 44.002, 254.625 44.004 C 253.456 44.006, 251.037 44.899, 249.250 45.989 M 268 72.500 L 268 100 274.500 100 L 281 100 281 72.500 L 281 45 274.500 45 L 268 45 268 72.500 M 357.760 64.749 C 357.903 75.612, 358.478 86.167, 359.037 88.205 C 359.596 90.243, 361.258 93.341, 362.730 95.091 C 364.202 96.840, 366.876 98.886, 368.671 99.636 C 370.467 100.386, 373.863 100.990, 376.218 100.978 C 378.573 100.966, 382.462 100.066, 384.859 98.978 C 387.257 97.890, 389.394 97, 389.609 97 C 389.824 97, 390 97.675, 390 98.500 C 390 99.690, 391.444 100, 397 100 L 404 100 404 72.500 L 404 45 397 45 L 390 45 390 64.784 L 390 84.569 387.096 86.284 C 385.498 87.228, 382.673 88, 380.818 88 C 378.963 88, 376.462 87.312, 375.261 86.471 C 374.060 85.629, 372.613 83.267, 372.044 81.221 C 371.476 79.174, 371.009 70.188, 371.006 61.250 L 371 45 364.250 44.999 L 357.500 44.999 357.760 64.749 M 315.604 58.038 C 314.012 58.515, 311.417 60.142, 309.838 61.655 C 308.260 63.167, 306.498 66.151, 305.923 68.286 C 305.348 70.421, 305.185 73.592, 305.559 75.334 C 305.934 77.075, 306.884 79.757, 307.669 81.294 C 308.454 82.831, 310.538 84.967, 312.299 86.040 C 314.477 87.369, 317.312 87.994, 321.168 87.996 C 324.286 87.998, 327.548 87.727, 328.418 87.393 C 329.756 86.880, 330 84.637, 330 72.868 L 330 58.950 327.435 57.975 C 326.024 57.439, 323.437 57.039, 321.685 57.086 C 319.933 57.133, 317.197 57.562, 315.604 58.038" stroke="none" fill="#535353" fill-rule="evenodd"/><path d="M 64.702 15.242 C 33.480 26.082, 29.934 27.533, 30.202 29.356 C 30.448 31.036, 33.880 32.559, 50 38.141 C 60.986 41.945, 71.267 44.916, 73.547 44.946 C 75.773 44.976, 82.754 43.266, 89.062 41.147 C 95.369 39.028, 101.968 36.551, 103.727 35.641 C 105.959 34.487, 107.267 32.840, 108.064 30.179 C 108.711 28.020, 109.053 22.135, 108.853 16.596 C 108.534 7.751, 108.275 6.639, 106.139 4.911 C 104.841 3.860, 102.816 3.036, 101.639 3.080 C 100.463 3.124, 83.841 8.596, 64.702 15.242 M 7.557 41.223 C 6.357 42.936, 6 46.208, 6 55.500 C 6 64.455, 6.376 68.092, 7.461 69.641 C 8.265 70.788, 11.527 72.677, 14.711 73.838 C 17.895 74.999, 38.091 82.036, 59.591 89.475 C 81.091 96.914, 100.034 103, 101.686 103 C 103.469 103, 105.465 102.145, 106.595 100.897 C 108.124 99.209, 108.570 96.902, 108.853 89.212 C 109.052 83.800, 108.708 77.968, 108.061 75.811 C 107.432 73.710, 105.923 71.347, 104.709 70.559 C 103.494 69.771, 82.946 62.348, 59.048 54.063 C 35.149 45.778, 14.137 39, 12.354 39 C 10.139 39, 8.621 39.703, 7.557 41.223 M 418 93 L 418 100 425.500 100 L 433 100 433 93 L 433 86 425.500 86 L 418 86 418 93 M 23.317 101.329 C 16.280 103.738, 10.049 106.524, 8.567 107.924 C 6.081 110.272, 6 110.738, 6 122.674 C 6 133.667, 6.216 135.216, 8 137 C 9.100 138.100, 10.867 139, 11.927 139 C 12.987 139, 29.507 133.585, 48.639 126.966 C 67.771 120.348, 83.762 114.385, 84.176 113.716 C 84.589 113.047, 84.381 111.976, 83.714 111.336 C 83.046 110.696, 74.012 107.208, 63.637 103.586 C 50.270 98.919, 43.423 97.023, 40.137 97.079 C 37.497 97.124, 30.252 98.954, 23.317 101.329" stroke="none" fill="#ca6ce3" fill-rule="evenodd"/></svg>