<svg xmlns="http://www.w3.org/2000/svg" xmlns:xlink="http://www.w3.org/1999/xlink" width="150" zoomAndPan="magnify" viewBox="0 0 375 374.999991" height="100" preserveAspectRatio="xMidYMid meet" version="1.0"><defs><g/><clipPath id="857f5df81e"><path d="M 22 163.574219 L 98.359375 163.574219 L 98.359375 212 L 22 212 Z M 22 163.574219 " clip-rule="nonzero"/></clipPath><clipPath id="a4eb314936"><path d="M 22 207 L 81 207 L 81 238.453125 L 22 238.453125 Z M 22 207 " clip-rule="nonzero"/></clipPath><clipPath id="070b4b819f"><path d="M 22 163 L 98.695312 163 L 98.695312 211.40625 L 22 211.40625 Z M 22 163 " clip-rule="nonzero"/></clipPath><clipPath id="8d4e6d01e7"><path d="M 39 136.523438 L 98.695312 136.523438 L 98.695312 168 L 39 168 Z M 39 136.523438 " clip-rule="nonzero"/></clipPath></defs><g fill="#ffffff" fill-opacity="1"><g transform="translate(106.386598, 208.874986)"><g><path d="M 38.09375 -49.0625 L 37.34375 -37.578125 L 37.078125 -37.5 C 35.148438 -40.394531 31.867188 -42.269531 27.234375 -43.125 C 25.773438 -43.414062 24.375 -43.5625 23.03125 -43.5625 C 21.6875 -43.5625 20.539062 -43.441406 19.59375 -43.203125 C 18.644531 -42.972656 17.832031 -42.632812 17.15625 -42.1875 C 15.71875 -41.25 15 -40.023438 15 -38.515625 C 15 -36.535156 15.625 -35.050781 16.875 -34.0625 C 18.4375 -32.863281 21.023438 -32.023438 24.640625 -31.546875 C 28.265625 -31.066406 31.171875 -30.410156 33.359375 -29.578125 C 35.546875 -28.742188 37.34375 -27.6875 38.75 -26.40625 C 41.40625 -24.007812 42.734375 -20.625 42.734375 -16.25 C 42.734375 -10.519531 40.570312 -6.109375 36.25 -3.015625 C 32.550781 -0.347656 27.890625 0.984375 22.265625 0.984375 C 17.734375 0.984375 13.253906 0.117188 8.828125 -1.609375 C 7.367188 -2.179688 6.09375 -2.84375 5 -3.59375 L 5.4375 -16.640625 L 5.59375 -16.765625 C 8.820312 -11.191406 14.117188 -8.40625 21.484375 -8.40625 C 26.722656 -8.40625 30.1875 -9.664062 31.875 -12.1875 C 32.445312 -13.050781 32.734375 -14.007812 32.734375 -15.0625 C 32.734375 -16.113281 32.5625 -16.984375 32.21875 -17.671875 C 31.882812 -18.367188 31.328125 -18.960938 30.546875 -19.453125 C 29.035156 -20.441406 26.492188 -21.101562 22.921875 -21.4375 C 19.359375 -21.78125 16.441406 -22.421875 14.171875 -23.359375 C 11.910156 -24.296875 10.101562 -25.457031 8.75 -26.84375 C 6.300781 -29.34375 5.078125 -32.832031 5.078125 -37.3125 C 5.078125 -41.945312 6.707031 -45.695312 9.96875 -48.5625 C 13.269531 -51.476562 17.726562 -52.9375 23.34375 -52.9375 C 28.957031 -52.9375 33.875 -51.644531 38.09375 -49.0625 Z M 38.09375 -49.0625 "/></g></g></g><g fill="#ffffff" fill-opacity="1"><g transform="translate(152.983606, 208.874986)"><g><path d="M 23.875 -8.59375 C 27.226562 -8.59375 29.53125 -9.46875 30.78125 -11.21875 L 31.09375 -11.21875 L 31.21875 -2.15625 C 29.9375 -0.875 27.566406 -0.0234375 24.109375 0.390625 C 23.171875 0.523438 22.003906 0.59375 20.609375 0.59375 C 19.210938 0.59375 17.703125 0.332031 16.078125 -0.1875 C 14.453125 -0.71875 13.066406 -1.566406 11.921875 -2.734375 C 9.546875 -5.160156 8.359375 -8.953125 8.359375 -14.109375 L 8.359375 -31.84375 L 2.46875 -31.84375 C 2.4375 -32.59375 2.421875 -33.359375 2.421875 -34.140625 L 2.421875 -40.15625 C 2.421875 -40.601562 2.4375 -40.828125 2.46875 -40.828125 L 8.359375 -40.828125 L 8.359375 -51.953125 L 17.9375 -51.953125 L 17.9375 -40.828125 L 28.671875 -40.828125 L 28.671875 -31.84375 L 17.9375 -31.84375 L 17.9375 -15.90625 C 17.9375 -11.8125 19.066406 -9.476562 21.328125 -8.90625 C 22.054688 -8.695312 22.90625 -8.59375 23.875 -8.59375 Z M 23.875 -8.59375 "/></g></g></g><g fill="#ffffff" fill-opacity="1"><g transform="translate(186.37878, 208.874986)"><g><path d="M 14.96875 -4.375 C 14.96875 -2.132812 15.019531 -0.675781 15.125 0 L 5.390625 0 L 5.390625 -40.828125 L 14.96875 -40.828125 L 14.96875 -37.8125 C 17.175781 -40.34375 19.5 -41.609375 21.9375 -41.609375 C 24.375 -41.609375 26.296875 -41.304688 27.703125 -40.703125 L 27 -30.203125 L 26.84375 -30.078125 C 25.925781 -31.691406 24.035156 -32.5 21.171875 -32.5 C 20.078125 -32.5 18.960938 -32.128906 17.828125 -31.390625 C 16.703125 -30.648438 15.75 -29.664062 14.96875 -28.4375 Z M 14.96875 -4.375 "/></g></g></g><g fill="#ffffff" fill-opacity="1"><g transform="translate(213.094919, 208.874986)"><g><path d="M 4.5 -52.46875 C 6.582031 -55.71875 8.753906 -58.582031 11.015625 -61.0625 L 19.421875 -54.453125 C 18.296875 -53.078125 17.253906 -51.722656 16.296875 -50.390625 C 16.296875 -50.390625 15.289062 -48.972656 13.28125 -46.140625 Z M 14.765625 -4.375 C 14.765625 -2.132812 14.816406 -0.675781 14.921875 0 L 5 0 L 5 -40.828125 L 14.765625 -40.828125 Z M 14.765625 -4.375 "/></g></g></g><g fill="#ffffff" fill-opacity="1"><g transform="translate(233.132023, 208.874986)"><g><path d="M 33.75 -2.1875 C 30.445312 -0.332031 27.140625 0.59375 23.828125 0.59375 C 20.523438 0.59375 17.632812 0.0703125 15.15625 -0.96875 C 12.6875 -2.019531 10.578125 -3.457031 8.828125 -5.28125 C 5.234375 -9.03125 3.4375 -13.898438 3.4375 -19.890625 C 3.4375 -26.085938 5.519531 -31.242188 9.6875 -35.359375 C 13.882812 -39.523438 19.25 -41.609375 25.78125 -41.609375 C 27.789062 -41.609375 29.757812 -41.347656 31.6875 -40.828125 L 31.6875 -58.203125 L 41.25 -58.203125 L 41.25 -16.453125 C 41.25 -12.984375 41.410156 -10.710938 41.734375 -9.640625 C 42.066406 -8.578125 42.429688 -7.796875 42.828125 -7.296875 C 43.234375 -6.804688 43.75 -6.34375 44.375 -5.90625 L 37.03125 0.59375 C 35.675781 -0.144531 34.582031 -1.070312 33.75 -2.1875 Z M 25.671875 -8.40625 C 27.859375 -8.40625 29.863281 -8.820312 31.6875 -9.65625 L 31.6875 -31.296875 C 29.863281 -32.046875 27.882812 -32.421875 25.75 -32.421875 C 23.613281 -32.421875 21.78125 -32.132812 20.25 -31.5625 C 18.726562 -30.988281 17.421875 -30.195312 16.328125 -29.1875 C 14.035156 -27.050781 12.890625 -24.273438 12.890625 -20.859375 C 12.890625 -17.140625 13.929688 -14.171875 16.015625 -11.953125 C 18.253906 -9.585938 21.472656 -8.40625 25.671875 -8.40625 Z M 25.671875 -8.40625 "/></g></g></g><g fill="#ffffff" fill-opacity="1"><g transform="translate(279.885267, 208.874986)"><g><path d="M 30.203125 -3.5625 C 26.867188 -0.789062 23.234375 0.59375 19.296875 0.59375 C 15.078125 0.59375 11.769531 -0.828125 9.375 -3.671875 C 7.082031 -6.429688 5.9375 -10.222656 5.9375 -15.046875 L 5.9375 -30.546875 C 5.9375 -35.753906 5.828125 -38.742188 5.609375 -39.515625 C 5.390625 -40.285156 5.226562 -40.773438 5.125 -40.984375 C 6.320312 -40.878906 7.570312 -40.828125 8.875 -40.828125 L 12.109375 -40.828125 C 12.972656 -40.828125 14.109375 -40.863281 15.515625 -40.9375 L 15.515625 -18.328125 C 15.515625 -12.960938 16.972656 -9.847656 19.890625 -8.984375 C 20.773438 -8.722656 21.738281 -8.59375 22.78125 -8.59375 C 25.851562 -8.59375 28.328125 -9.710938 30.203125 -11.953125 L 30.203125 -40.828125 L 39.890625 -40.828125 L 39.890625 -5 C 39.890625 -2.707031 39.992188 -1.039062 40.203125 0 L 30.203125 0 Z M 30.203125 -3.5625 "/></g></g></g><g fill="#ffffff" fill-opacity="1"><g transform="translate(326.482287, 208.874986)"><g><path d="M 4.265625 0 C 4.492188 -1.59375 4.609375 -3 4.609375 -4.21875 C 4.609375 -5.445312 4.601562 -6.285156 4.59375 -6.734375 C 4.582031 -7.191406 4.5625 -7.640625 4.53125 -8.078125 C 4.507812 -8.523438 4.484375 -8.945312 4.453125 -9.34375 L 4.34375 -10.3125 L 15.671875 -10.3125 C 15.585938 -9.320312 15.546875 -8.515625 15.546875 -7.890625 L 15.46875 -6.25 C 15.46875 -5.757812 15.46875 -4.828125 15.46875 -3.453125 C 15.46875 -2.085938 15.535156 -0.9375 15.671875 0 Z M 4.265625 0 "/></g></g></g><g clip-path="url(#857f5df81e)"><path fill="#ffffff" d="M 91.515625 211.460938 C 91.890625 211.59375 92.273438 211.679688 92.671875 211.71875 C 93.066406 211.757812 93.460938 211.75 93.855469 211.695312 C 94.25 211.640625 94.628906 211.542969 95 211.394531 C 95.371094 211.25 95.71875 211.0625 96.042969 210.835938 C 96.371094 210.605469 96.664062 210.34375 96.925781 210.046875 C 97.191406 209.746094 97.414062 209.421875 97.601562 209.070312 C 97.785156 208.71875 97.925781 208.351562 98.023438 207.964844 C 98.121094 207.578125 98.171875 207.1875 98.175781 206.789062 L 98.175781 196.992188 C 98.175781 196.378906 98.128906 195.773438 98.035156 195.167969 C 97.941406 194.5625 97.800781 193.96875 97.617188 193.382812 C 97.429688 192.800781 97.199219 192.234375 96.929688 191.6875 C 96.65625 191.140625 96.339844 190.617188 95.988281 190.117188 C 95.632812 189.617188 95.242188 189.148438 94.816406 188.710938 C 94.390625 188.269531 93.933594 187.867188 93.445312 187.5 C 92.953125 187.128906 92.441406 186.800781 91.902344 186.511719 C 91.363281 186.222656 90.804688 185.976562 90.226562 185.773438 L 28.6875 164.160156 C 28.308594 164.027344 27.921875 163.941406 27.523438 163.902344 C 27.125 163.863281 26.730469 163.871094 26.332031 163.925781 C 25.9375 163.984375 25.550781 164.085938 25.179688 164.234375 C 24.808594 164.378906 24.460938 164.570312 24.132812 164.800781 C 23.808594 165.035156 23.511719 165.300781 23.25 165.601562 C 22.988281 165.90625 22.765625 166.234375 22.582031 166.589844 C 22.398438 166.945312 22.261719 167.316406 22.164062 167.707031 C 22.070312 168.09375 22.023438 168.488281 22.023438 168.890625 L 22.023438 181.878906 C 22.019531 182.644531 22.132812 183.394531 22.363281 184.125 C 22.589844 184.855469 22.929688 185.53125 23.371094 186.160156 C 23.8125 186.785156 24.339844 187.324219 24.953125 187.785156 C 25.566406 188.246094 26.234375 188.601562 26.960938 188.851562 L 62.105469 201.210938 Z M 91.515625 211.460938 " fill-opacity="1" fill-rule="nonzero"/></g><g clip-path="url(#a4eb314936)"><path fill="#ffffff" d="M 22.023438 233.53125 C 22.027344 233.929688 22.074219 234.324219 22.167969 234.710938 C 22.265625 235.101562 22.402344 235.472656 22.585938 235.828125 C 22.769531 236.179688 22.996094 236.507812 23.257812 236.808594 C 23.519531 237.109375 23.8125 237.378906 24.140625 237.609375 C 24.464844 237.839844 24.816406 238.027344 25.1875 238.175781 C 25.558594 238.324219 25.941406 238.421875 26.335938 238.480469 C 26.730469 238.535156 27.128906 238.542969 27.527344 238.503906 C 27.921875 238.464844 28.3125 238.378906 28.6875 238.246094 L 79.460938 220.425781 C 79.765625 220.308594 80.007812 220.117188 80.195312 219.847656 C 80.378906 219.582031 80.472656 219.285156 80.472656 218.960938 C 80.472656 218.632812 80.378906 218.335938 80.195312 218.070312 C 80.007812 217.800781 79.765625 217.609375 79.460938 217.496094 L 59.238281 210.363281 L 51.914062 207.800781 C 50.539062 207.316406 49.121094 207.074219 47.660156 207.074219 C 46.199219 207.074219 44.78125 207.316406 43.40625 207.800781 L 26.945312 213.570312 C 26.222656 213.820312 25.554688 214.175781 24.945312 214.636719 C 24.332031 215.097656 23.804688 215.640625 23.363281 216.265625 C 22.921875 216.890625 22.589844 217.566406 22.359375 218.296875 C 22.128906 219.027344 22.019531 219.777344 22.023438 220.542969 Z M 22.023438 233.53125 " fill-opacity="1" fill-rule="nonzero"/></g><g clip-path="url(#070b4b819f)"><path fill="#ffffff" d="M 28.6875 163.515625 C 28.3125 163.382812 27.925781 163.300781 27.53125 163.257812 C 27.136719 163.21875 26.742188 163.226562 26.347656 163.28125 C 25.953125 163.335938 25.570312 163.4375 25.199219 163.582031 C 24.832031 163.726562 24.484375 163.914062 24.15625 164.140625 C 23.832031 164.371094 23.539062 164.632812 23.273438 164.933594 C 23.011719 165.230469 22.789062 165.554688 22.601562 165.90625 C 22.417969 166.257812 22.273438 166.628906 22.175781 167.011719 C 22.078125 167.398438 22.027344 167.789062 22.023438 168.1875 L 22.023438 177.984375 C 22.023438 178.597656 22.070312 179.207031 22.164062 179.8125 C 22.261719 180.414062 22.398438 181.007812 22.585938 181.59375 C 22.769531 182.175781 23 182.742188 23.273438 183.289062 C 23.546875 183.835938 23.859375 184.359375 24.214844 184.859375 C 24.570312 185.359375 24.957031 185.828125 25.386719 186.269531 C 25.8125 186.707031 26.269531 187.109375 26.757812 187.480469 C 27.246094 187.847656 27.761719 188.175781 28.300781 188.464844 C 28.839844 188.753906 29.398438 189 29.976562 189.203125 L 91.515625 210.820312 C 91.890625 210.949219 92.28125 211.035156 92.679688 211.074219 C 93.074219 211.113281 93.472656 211.105469 93.871094 211.050781 C 94.265625 210.996094 94.648438 210.894531 95.019531 210.746094 C 95.394531 210.597656 95.742188 210.40625 96.066406 210.175781 C 96.394531 209.945312 96.6875 209.675781 96.949219 209.375 C 97.214844 209.074219 97.4375 208.742188 97.621094 208.386719 C 97.804688 208.03125 97.941406 207.660156 98.035156 207.273438 C 98.128906 206.882812 98.179688 206.488281 98.175781 206.089844 L 98.175781 193.097656 C 98.183594 192.332031 98.070312 191.585938 97.839844 190.851562 C 97.609375 190.121094 97.273438 189.445312 96.832031 188.820312 C 96.390625 188.195312 95.859375 187.652344 95.246094 187.191406 C 94.636719 186.730469 93.964844 186.378906 93.242188 186.128906 L 58.09375 173.765625 Z M 28.6875 163.515625 " fill-opacity="1" fill-rule="nonzero"/></g><g clip-path="url(#8d4e6d01e7)"><path fill="#ffffff" d="M 98.175781 141.445312 C 98.175781 141.046875 98.128906 140.652344 98.035156 140.265625 C 97.9375 139.878906 97.796875 139.503906 97.613281 139.152344 C 97.429688 138.796875 97.207031 138.46875 96.945312 138.167969 C 96.683594 137.867188 96.386719 137.601562 96.0625 137.371094 C 95.734375 137.140625 95.386719 136.949219 95.015625 136.800781 C 94.644531 136.65625 94.261719 136.554688 93.867188 136.5 C 93.46875 136.441406 93.074219 136.433594 92.675781 136.472656 C 92.277344 136.511719 91.890625 136.597656 91.515625 136.730469 L 40.742188 154.554688 C 40.4375 154.667969 40.191406 154.859375 40.007812 155.128906 C 39.824219 155.394531 39.730469 155.691406 39.730469 156.019531 C 39.730469 156.34375 39.824219 156.640625 40.007812 156.90625 C 40.191406 157.175781 40.4375 157.367188 40.742188 157.480469 L 60.964844 164.613281 L 68.289062 167.175781 C 69.664062 167.660156 71.082031 167.902344 72.542969 167.902344 C 74 167.902344 75.417969 167.660156 76.796875 167.175781 L 93.257812 161.40625 C 93.980469 161.15625 94.648438 160.800781 95.257812 160.339844 C 95.871094 159.878906 96.394531 159.335938 96.835938 158.710938 C 97.277344 158.085938 97.613281 157.410156 97.84375 156.679688 C 98.070312 155.949219 98.183594 155.203125 98.175781 154.4375 Z M 98.175781 141.445312 " fill-opacity="1" fill-rule="nonzero"/></g></svg>